<svg width="40" height="40" viewBox="0 0 40 40" fill="none" xmlns="http://www.w3.org/2000/svg">
    <!-- 背景圆 -->
    <circle cx="20" cy="20" r="20" fill="#FFE4E8"/>
    
    <!-- 头发 -->
    <path d="M10 20C10 14 14 8 20 8C26 8 30 14 30 20" fill="#6D4C41"/>
    <path d="M12 20C12 15 15 10 20 10C25 10 28 15 28 20" fill="#8D6E63"/>
    
    <!-- 脸部 -->
    <circle cx="20" cy="21" r="8" fill="#FFDBAC"/>
    
    <!-- 刘海 -->
    <path d="M14 18C14 18 17 15 20 15C23 15 26 18 26 18" fill="#8D6E63"/>
    
    <!-- 眼睛 -->
    <path d="M16 19C16 19 17 20 18 20C19 20 20 19 20 19" stroke="#4A4A4A" stroke-width="1.5" stroke-linecap="round"/>
    <path d="M20 19C20 19 21 20 22 20C23 20 24 19 24 19" stroke="#4A4A4A" stroke-width="1.5" stroke-linecap="round"/>
    
    <!-- 眼睫毛 -->
    <path d="M17 18.5L18 17.5M19 18.5L20 17.5" stroke="#4A4A4A" stroke-width="0.5"/>
    <path d="M21 18.5L22 17.5M23 18.5L24 17.5" stroke="#4A4A4A" stroke-width="0.5"/>
    
    <!-- 腮红 -->
    <circle cx="16" cy="22" r="1.5" fill="#FFB6C1" fill-opacity="0.6"/>
    <circle cx="24" cy="22" r="1.5" fill="#FFB6C1" fill-opacity="0.6"/>
    
    <!-- 嘴巴 -->
    <path d="M18 24C18 24 19 25 20 25C21 25 22 24 22 24" stroke="#FF9BB3" stroke-width="1.5" stroke-linecap="round"/>
    
    <!-- 发饰 -->
    <circle cx="14" cy="16" r="2" fill="#FF9BB3"/>
    <path d="M13 15L15 17M15 15L13 17" stroke="white" stroke-width="0.5"/>
</svg> 